<?xml version="1.0" standalone="no"?>
<!DOCTYPE svg PUBLIC "-//W3C//DTD SVG 20010904//EN"
 "http://www.w3.org/TR/2001/REC-SVG-20010904/DTD/svg10.dtd">
<svg version="1.0" xmlns="http://www.w3.org/2000/svg"
 width="689.000000pt" height="689.000000pt" viewBox="0 0 689.000000 689.000000"
 preserveAspectRatio="xMidYMid meet">
<metadata>
Created by potrace 1.14, written by Peter Selinger 2001-2017
</metadata>
<g transform="translate(0.000000,689.000000) scale(0.100000,-0.100000)"
fill="#000000" stroke="none">
<path d="M3518 6684 c-4 -4 -72 -7 -150 -7 -79 0 -147 -2 -153 -5 -9 -6 -100
-12 -164 -12 -40 0 -154 -20 -199 -36 -24 -8 -47 -12 -52 -9 -5 3 -37 -2 -72
-10 -35 -8 -80 -15 -101 -15 -22 0 -51 -8 -65 -18 -33 -23 -109 -45 -123 -36
-6 3 -18 -1 -27 -9 -18 -16 -62 -32 -75 -29 -5 1 -20 -4 -35 -12 -32 -18 -76
-36 -157 -66 -33 -12 -67 -26 -75 -31 -8 -5 -34 -18 -56 -28 -23 -11 -45 -24
-48 -30 -4 -6 -15 -11 -24 -11 -32 -1 -153 -70 -180 -103 -8 -9 -19 -14 -25
-11 -7 2 -34 -14 -61 -36 -26 -22 -41 -40 -33 -40 9 0 19 5 22 10 3 6 15 10
25 10 17 0 66 18 112 41 10 5 24 9 31 9 7 0 29 11 48 25 19 14 42 24 51 22 10
-3 22 1 28 8 13 15 57 26 120 29 25 2 47 4 50 5 3 2 28 4 55 5 47 2 106 -11
121 -27 4 -4 14 -7 23 -7 8 0 31 -18 51 -40 19 -22 42 -41 50 -42 8 -2 20 -8
27 -15 15 -13 95 -24 143 -18 19 3 55 6 80 9 25 2 57 9 73 15 15 6 27 7 27 4
0 -4 5 -2 12 5 7 7 22 12 33 12 12 0 40 9 63 20 22 11 46 20 51 20 6 0 29 13
53 29 48 32 84 41 173 46 33 2 87 9 120 15 33 7 78 13 100 14 22 2 58 11 80
20 27 12 67 18 125 18 78 0 86 -2 105 -25 11 -14 34 -29 50 -33 17 -4 48 -28
72 -54 23 -26 48 -47 55 -48 7 0 31 -5 53 -11 42 -11 132 -5 151 10 6 5 132 9
280 8 234 0 278 3 341 20 56 14 82 17 114 10 22 -5 55 -7 73 -4 23 5 36 2 45
-9 8 -9 25 -16 40 -16 15 0 33 -6 39 -12 7 -7 43 -33 80 -58 74 -50 95 -82 97
-148 0 -39 -4 -49 -46 -91 -49 -50 -67 -59 -164 -86 -83 -22 -126 -47 -152
-85 -29 -42 -29 -64 3 -125 14 -27 27 -65 29 -84 2 -18 9 -40 17 -47 12 -13
82 -23 193 -29 22 -1 48 -2 57 -3 19 -2 48 -55 48 -88 0 -13 4 -25 10 -29 5
-3 9 -18 8 -33 0 -15 2 -56 5 -91 l5 -64 -46 -44 c-26 -24 -50 -43 -53 -43 -3
0 -14 -19 -23 -42 -10 -24 -22 -50 -27 -58 -31 -52 -48 -96 -44 -109 5 -18
-22 -54 -48 -64 -10 -4 -24 -22 -32 -41 -8 -19 -19 -37 -25 -41 -13 -8 -13
-51 1 -76 6 -11 12 -29 14 -39 2 -11 18 -40 34 -64 17 -25 31 -53 31 -64 0
-11 7 -25 15 -32 20 -16 29 -89 15 -125 -16 -42 -67 -93 -101 -100 -24 -5 -35
0 -70 33 -23 23 -38 45 -34 52 4 6 1 18 -7 27 -7 9 -13 35 -14 57 -3 106 -4
112 -34 145 -22 23 -36 31 -48 26 -9 -4 -35 -11 -57 -15 -62 -13 -94 -34 -117
-76 -11 -22 -29 -48 -39 -60 -21 -23 -25 -71 -6 -95 7 -9 27 -23 45 -33 40
-21 41 -41 2 -92 -16 -21 -30 -46 -30 -55 0 -17 30 -49 47 -49 29 0 74 -35 89
-68 9 -20 22 -48 29 -62 8 -16 14 -67 14 -143 1 -102 -1 -123 -18 -150 -31
-49 -114 -118 -149 -123 -8 -2 -22 -10 -31 -18 -10 -9 -26 -16 -37 -16 -20 0
-194 -161 -194 -180 0 -5 -18 -27 -41 -47 -22 -20 -47 -49 -55 -65 -11 -20
-26 -31 -59 -39 -25 -6 -48 -15 -51 -20 -3 -5 -16 -9 -30 -9 -14 0 -33 -4 -43
-10 -10 -5 -33 -11 -52 -14 -44 -5 -100 -25 -120 -42 -8 -8 -21 -14 -27 -14
-22 0 -53 -63 -46 -94 6 -29 53 -125 72 -149 23 -28 30 -86 17 -132 -8 -25
-11 -45 -7 -45 3 0 -10 -17 -30 -37 -20 -21 -45 -56 -56 -79 -12 -22 -36 -55
-55 -71 -34 -30 -37 -31 -144 -30 -90 0 -115 -4 -139 -19 -16 -10 -32 -23 -36
-29 -19 -25 -2 -98 31 -138 11 -13 12 -20 3 -29 -11 -11 -9 -15 21 -76 22 -44
22 -104 -1 -132 -17 -21 -21 -22 -58 -10 -21 7 -46 16 -54 21 -8 5 -24 13 -36
18 -27 12 -76 75 -96 126 -9 22 -26 65 -38 95 -13 30 -31 87 -40 125 -9 39
-24 85 -33 102 -9 17 -14 33 -11 35 2 3 -2 11 -11 18 -8 7 -15 24 -15 38 0 14
-7 33 -16 43 -8 9 -17 32 -19 50 -3 19 -13 40 -24 49 -10 8 -29 38 -41 65 -13
28 -56 93 -96 146 -41 53 -74 100 -74 104 0 5 -6 16 -13 24 -8 9 -20 32 -27
51 -7 19 -20 43 -28 53 -8 9 -20 27 -26 39 -6 13 -18 24 -27 26 -15 3 -74 -37
-115 -77 -12 -12 -25 -21 -31 -21 -5 0 -27 -13 -49 -30 -21 -16 -43 -30 -48
-30 -13 0 -178 -149 -198 -178 -9 -14 -24 -30 -33 -35 -9 -5 -20 -20 -25 -33
-5 -13 -21 -29 -34 -34 -14 -5 -31 -20 -38 -33 -7 -13 -40 -48 -73 -77 -33
-30 -62 -59 -65 -65 -7 -16 -91 -90 -119 -105 -19 -10 -28 -9 -48 1 -29 16
-65 72 -58 91 3 8 -3 23 -15 33 -11 10 -20 26 -20 36 0 10 -4 20 -9 24 -5 3
-13 20 -17 37 -3 18 -10 39 -14 48 -58 123 -81 205 -81 292 0 15 -4 30 -8 33
-5 3 -7 23 -4 45 5 33 1 45 -16 64 -12 12 -19 25 -16 28 4 3 -7 15 -24 27 -30
22 -85 123 -117 217 -13 37 -15 68 -10 129 6 79 5 81 -25 118 -17 20 -37 37
-46 37 -8 0 -26 9 -40 19 -13 11 -50 27 -80 36 -35 10 -67 28 -84 46 -15 16
-33 29 -41 29 -8 0 -25 11 -38 25 -13 14 -29 25 -35 25 -6 0 -22 11 -35 25
-12 13 -26 22 -31 20 -9 -6 -25 11 -59 61 -14 21 -42 55 -63 75 -22 21 -36 42
-33 47 3 5 -8 18 -23 30 -29 21 -29 21 -47 1 -21 -24 -35 -104 -20 -119 8 -8
7 -13 -1 -18 -14 -9 -24 -131 -11 -138 5 -3 6 -14 3 -25 -7 -22 45 -79 72 -79
19 0 71 -43 101 -83 16 -23 22 -45 22 -85 0 -46 -5 -60 -31 -94 -22 -28 -38
-38 -50 -35 -11 3 -21 2 -24 -3 -9 -15 -86 -50 -109 -50 -13 0 -29 -7 -36 -15
-7 -8 -21 -15 -32 -15 -10 0 -30 -7 -44 -16 -13 -9 -27 -14 -30 -11 -3 3 -26
-3 -50 -13 -24 -11 -47 -19 -51 -18 -4 0 -12 -7 -17 -15 -8 -13 -2 -25 29 -57
21 -22 36 -42 33 -46 -4 -3 5 -22 18 -41 13 -20 24 -43 24 -51 0 -9 8 -24 17
-34 14 -16 15 -22 4 -40 -8 -12 -10 -34 -6 -58 4 -21 2 -46 -3 -56 -5 -11 -14
-29 -20 -41 -7 -13 -12 -29 -12 -37 0 -7 -7 -19 -15 -26 -8 -7 -15 -23 -15
-36 0 -12 -6 -29 -13 -36 -23 -24 -47 -67 -47 -85 0 -9 -10 -27 -22 -40 -17
-18 -21 -33 -19 -70 1 -26 9 -55 17 -64 8 -8 14 -21 14 -27 0 -7 5 -20 10 -30
13 -22 70 -199 70 -217 0 -8 11 -31 25 -51 14 -20 25 -44 25 -53 0 -9 7 -26
15 -38 8 -12 12 -28 9 -37 -3 -9 3 -20 15 -28 12 -7 21 -20 21 -28 0 -8 7 -24
15 -34 8 -11 15 -30 15 -42 0 -12 7 -24 15 -28 8 -3 15 -13 15 -23 0 -9 9 -26
19 -37 11 -12 38 -55 60 -96 22 -41 59 -94 81 -118 23 -24 45 -53 51 -65 21
-47 59 -102 94 -136 49 -49 125 -140 125 -150 0 -5 16 -18 35 -30 19 -11 35
-25 35 -32 0 -6 11 -20 25 -31 14 -11 32 -33 40 -49 9 -16 21 -29 27 -29 6 0
39 -29 73 -64 34 -35 70 -66 82 -70 20 -6 44 -26 126 -103 21 -20 55 -45 75
-56 20 -10 58 -37 84 -58 26 -21 52 -39 58 -39 7 0 40 -21 73 -46 61 -46 116
-74 146 -74 9 -1 32 -14 51 -30 20 -18 46 -30 62 -30 17 0 33 -8 40 -20 7 -11
22 -20 34 -20 12 0 38 -11 58 -25 20 -14 43 -25 51 -25 8 0 17 -5 20 -10 4 -6
15 -8 24 -5 10 3 24 -1 31 -10 7 -8 30 -18 52 -21 21 -4 41 -11 44 -15 3 -5
13 -9 23 -9 10 0 24 -6 30 -14 7 -8 28 -16 49 -19 63 -9 126 -24 155 -36 16
-6 40 -11 55 -11 15 0 40 -7 55 -15 15 -8 40 -14 55 -14 44 0 66 -2 82 -9 8
-3 24 -6 35 -8 11 -1 39 -4 61 -7 23 -2 47 -8 54 -12 7 -5 45 -8 84 -8 39 0
76 -3 81 -7 6 -4 52 -8 103 -8 52 0 96 -3 99 -5 2 -3 17 -1 32 4 18 7 37 6 55
-1 15 -5 33 -7 39 -3 7 5 58 8 113 9 56 1 107 5 115 9 11 8 117 16 188 15 13
0 31 6 40 14 9 7 39 16 66 19 28 3 64 11 80 18 17 6 50 13 73 14 24 1 53 7 65
13 31 15 115 42 132 42 7 0 26 5 42 12 15 6 33 10 39 10 19 -3 110 41 96 46
-8 2 -25 -1 -37 -8 -14 -8 -42 -11 -70 -8 -25 3 -48 2 -50 -3 -5 -7 -81 -5
-195 6 -19 1 -40 3 -47 4 -21 2 -36 44 -38 106 -1 33 -6 73 -10 88 -4 17 -3
38 3 50 6 12 13 32 17 44 7 27 74 93 95 93 8 0 27 6 41 14 16 8 32 10 42 5 9
-6 26 -5 42 1 14 6 37 7 50 4 12 -3 26 -1 29 5 4 6 20 8 35 5 34 -7 138 21
163 43 10 9 29 36 43 59 14 24 30 44 35 44 6 0 39 20 74 45 41 28 76 45 94 45
16 0 35 7 42 15 7 8 21 15 32 15 10 0 30 7 44 16 14 9 42 20 62 25 20 4 66 15
101 24 44 11 68 12 75 5 12 -12 73 -13 80 -1 3 5 22 12 43 16 20 4 48 15 61
26 14 10 30 19 37 19 17 0 39 36 60 96 23 69 41 94 70 94 13 0 26 4 30 9 8 14
198 11 254 -4 43 -11 52 -11 77 6 16 10 42 43 59 73 16 30 38 57 47 59 10 3
18 13 19 24 0 10 8 30 17 44 31 47 77 110 105 144 15 18 27 38 27 44 0 15 54
124 79 159 11 17 21 37 21 45 0 8 7 20 15 27 8 7 15 24 15 37 0 14 8 37 19 51
24 35 77 157 86 199 3 18 11 35 16 38 5 4 9 19 9 34 0 16 6 34 14 40 8 6 16
28 20 49 5 36 9 54 22 120 3 18 10 35 15 38 5 3 9 23 9 44 0 21 4 41 9 44 5 3
11 32 14 63 16 156 20 179 32 193 8 9 12 44 12 92 0 42 4 82 10 90 8 9 9 37 3
90 -5 42 -5 90 -1 106 5 15 7 45 5 66 -1 21 1 49 6 61 6 16 5 27 -3 34 -13 11
-16 138 -4 158 4 6 3 13 -2 15 -6 1 -12 37 -14 78 -2 41 -8 83 -12 93 -4 9 -5
27 -2 38 3 11 -1 35 -8 52 -7 18 -18 69 -23 115 -6 50 -16 90 -26 101 -9 10
-16 38 -17 67 -1 27 -10 65 -19 84 -10 19 -21 51 -25 70 -4 19 -17 58 -30 85
-13 28 -26 64 -30 80 -8 35 -11 43 -64 157 -23 47 -41 93 -41 100 0 8 -9 23
-20 33 -11 10 -20 23 -20 30 0 17 -60 135 -87 171 -13 17 -23 38 -23 46 0 8
-12 25 -26 39 -14 13 -39 49 -54 79 -15 30 -40 66 -54 79 -14 14 -26 29 -26
34 0 5 -20 29 -45 54 -25 24 -45 51 -45 58 0 8 -9 19 -20 25 -11 6 -20 16 -20
22 0 6 -22 34 -49 62 -26 28 -81 86 -122 128 -40 42 -83 79 -95 82 -12 3 -21
13 -20 23 0 9 -34 44 -84 85 -47 37 -101 82 -120 99 -71 62 -93 78 -111 84
-11 4 -19 10 -19 15 0 5 -9 12 -20 15 -11 4 -32 17 -48 29 -15 13 -37 26 -50
30 -12 4 -34 18 -49 32 -14 13 -30 24 -34 24 -4 0 -28 14 -52 30 -25 17 -52
30 -60 30 -8 0 -20 7 -27 15 -7 8 -16 15 -21 15 -5 0 -28 12 -50 26 -23 14
-43 23 -46 20 -3 -3 -36 10 -72 28 -36 19 -94 44 -129 55 -34 12 -71 26 -82
31 -11 6 -29 15 -40 20 -11 6 -27 10 -35 10 -9 0 -30 7 -48 17 -32 16 -42 19
-129 29 -26 3 -52 12 -58 19 -6 8 -17 12 -25 9 -7 -3 -32 4 -56 15 -23 12 -62
21 -85 21 -24 0 -55 5 -70 10 -15 6 -63 13 -106 15 -44 2 -86 9 -92 15 -7 5
-55 12 -107 14 -52 2 -105 7 -119 11 -14 3 -28 3 -32 -1z m1976 -1667 c14 -15
31 -27 39 -27 18 0 57 -54 57 -80 0 -24 -62 -90 -85 -90 -9 0 -26 -7 -39 -15
-29 -19 -90 -22 -110 -6 -12 10 -15 37 -15 124 0 61 3 115 5 119 3 4 32 6 64
5 49 -3 64 -8 84 -30z m-39 -371 c35 -30 39 -38 39 -77 -2 -97 -11 -180 -22
-191 -7 -7 -12 -19 -12 -28 0 -10 -6 -30 -14 -46 -8 -16 -17 -40 -19 -54 -2
-14 -10 -38 -17 -53 -13 -27 -16 -28 -72 -23 -33 2 -61 0 -64 -6 -3 -5 -15 -7
-26 -5 -11 3 -21 0 -24 -8 -3 -7 -23 -27 -44 -44 -38 -30 -41 -31 -80 -19
l-40 13 6 50 c4 29 14 56 24 65 9 8 20 23 23 33 4 9 13 17 21 17 22 0 74 57
97 104 10 23 39 64 64 93 44 50 44 52 30 80 -19 36 -19 67 0 83 8 7 15 18 15
26 0 11 20 19 60 22 8 1 33 -13 55 -32z m-117 -626 c11 0 34 -59 27 -70 -12
-19 -66 -41 -105 -43 -40 -1 -70 16 -70 40 0 22 62 74 81 68 10 -3 20 -1 24 5
4 6 14 9 22 6 8 -3 18 -6 21 -6z m-274 -39 c26 -29 31 -84 11 -146 -21 -68
-37 -85 -78 -85 -42 0 -77 25 -77 55 0 13 -5 35 -11 49 -9 20 -9 29 0 40 7 8
10 24 7 34 -16 50 110 95 148 53z m-187 -413 c4 -7 9 -39 10 -71 2 -55 1 -59
-40 -97 -22 -22 -50 -41 -62 -42 -97 -7 -111 3 -88 61 23 60 56 125 72 144 17
20 95 24 108 5z m-103 -595 c4 -5 13 -8 19 -8 7 0 14 -11 16 -25 1 -14 14 -36
27 -49 13 -13 24 -27 24 -31 0 -5 16 -27 35 -50 19 -23 35 -46 35 -50 0 -5 13
-22 29 -38 41 -40 77 -187 64 -258 -6 -31 -68 -124 -84 -124 -4 0 -24 24 -42
53 -19 28 -61 80 -93 114 -118 125 -144 177 -148 298 -2 58 1 77 21 112 30 55
74 79 97 56z m-2744 -488 c7 -8 15 -34 17 -58 7 -60 -16 -109 -60 -130 -47
-23 -64 -21 -81 6 -17 26 -6 119 20 168 12 24 21 29 53 29 22 0 44 -6 51 -15z
m2495 -251 c31 -20 85 -99 85 -123 0 -10 9 -26 20 -36 26 -24 28 -116 3 -172
-20 -43 -93 -119 -126 -129 -12 -4 -27 -15 -34 -24 -7 -10 -35 -35 -63 -56
-27 -21 -50 -44 -50 -51 0 -8 -12 -18 -27 -24 -37 -14 -182 -13 -247 1 -59 14
-122 53 -129 80 -8 32 12 181 28 203 8 12 15 31 15 43 0 12 7 24 15 28 8 3 15
11 15 18 1 26 72 88 100 88 6 0 41 24 78 54 37 29 85 61 107 71 22 9 51 23 65
31 34 19 115 18 145 -2z m1485 -211 c14 -7 33 -13 44 -13 26 0 96 -41 96 -57
0 -7 5 -22 12 -33 10 -15 9 -25 -2 -47 -19 -38 -61 -83 -77 -83 -8 0 -33 -10
-56 -23 -60 -32 -135 -55 -187 -56 -25 -1 -58 -6 -75 -10 -40 -12 -109 -9
-126 6 -8 6 -25 13 -39 15 -19 2 -28 13 -39 45 -14 40 -14 43 12 80 60 87 139
152 200 165 23 5 58 13 77 18 49 11 130 8 160 -7z m-2695 -162 c11 -5 51 -18
90 -31 44 -14 79 -33 97 -52 20 -21 33 -28 48 -23 13 4 22 1 26 -9 3 -9 25
-24 48 -35 22 -10 64 -37 93 -60 51 -40 154 -159 159 -184 2 -6 6 -21 9 -32 5
-16 -3 -27 -37 -49 -31 -20 -47 -25 -58 -18 -9 5 -30 13 -47 16 -17 4 -37 14
-44 22 -6 8 -28 14 -48 14 -20 0 -49 8 -66 18 -16 10 -49 23 -71 30 -23 7 -47
19 -54 27 -7 8 -20 15 -29 15 -24 0 -133 86 -149 117 -8 16 -24 39 -37 53 -12
14 -27 49 -32 77 -9 48 -8 55 13 81 25 29 56 37 89 23z"/>
<path d="M1355 5277 c-11 -7 -39 -19 -63 -27 -45 -14 -121 -88 -123 -119 -5
-66 -10 -78 -64 -150 -5 -7 -32 -35 -59 -60 -26 -26 -50 -58 -52 -72 -2 -13
-7 -39 -10 -57 -12 -61 31 -117 82 -109 52 8 112 73 171 187 13 25 34 54 46
66 12 11 31 36 41 55 11 18 34 51 53 72 18 20 33 43 33 50 0 7 13 26 29 41 35
33 46 75 22 83 -9 4 -27 17 -40 30 -27 26 -39 28 -66 10z"/>
<path d="M670 5158 c-49 -77 -79 -130 -99 -181 -13 -32 -27 -60 -32 -63 -5 -3
-9 -13 -9 -22 0 -9 -11 -27 -24 -41 -15 -16 -27 -44 -31 -71 -6 -40 -4 -48 19
-69 l26 -25 43 24 c23 12 56 35 72 50 17 15 40 33 53 39 14 8 22 21 22 37 0
14 5 34 11 45 8 16 7 25 -6 39 -9 10 -15 31 -14 47 2 15 -2 37 -8 49 -8 13 -9
33 -3 60 5 21 6 54 2 72 l-7 32 -15 -22z"/>
</g>
</svg>
